# xmcd
#
# Track frame offsets:
#	150
#	12437
#	24425
#	36670
#	55487
#	68950
#	82560
#	93290
#	105967
#	115637
#	127862
#	142442
#	153217
#	168487
#	181857
#	195262
#	208645
#	220225
#	232955
#	244650
#	258180
#	275050
#	285182
#	296480
#
# Disc length: 4082 seconds
#
# Revision: 1
# Processed by: cddbd v1.4b41PL2 Copyright (c) Steve Scherf et al.
# Submitted via: audiograbber 1.80
#
DISCID=470ff018
DTITLE=Various  - 30 Years Of No. 1 Country Hits Disc #4
DYEAR=1900
DGENRE=
TTITLE0=Hank Williams Jr. - Eleven Roses
TTITLE1=Loretta Lynn - One's On The Way
TTITLE2=Donna Fargo - Funny Face
TTITLE3=Tom T. Hall - Old Dogs, Children And Watermelon Wine
TTITLE4=Roy Clark - Come Live With Me
TTITLE5=Conway Twitty - You've Never Been This Far Before
TTITLE6=Ronny Milsap - Pure Love
TTITLE7=Waylon Jennings - I'm A Ramblin' Man
TTITLE8=Linda Ronstadt - When Will I Be Loved
TTITLE9=Merle Haggard - If We Make It Through December
TTITLE10=Glenn Campbell - Rhinestone Cowboy
TTITLE11=Kendalls, The - Heaven's Just A Sin Away
TTITLE12=B.J. Thomas - (Hey Won't You Play) Another Somebody Done Somebody Wron
TTITLE12=g Song
TTITLE13=Dolly Parton - Here You Come Again
TTITLE14=Waylon Jennings and Willie Nelson - Good Hearted Woman
TTITLE15=Merle Haggard - Cherokee Maiden
TTITLE16=Crystal Gayle - Don't It Make My Brown Eyes Blue
TTITLE17=Elvis Presley - Moody Blue
TTITLE18=John Conlee - Backside Of Thirty
TTITLE19=Dolly Parton - Two Doors Down
TTITLE20=Ronnie Milsap - Nobody Likes Sad Songs
TTITLE21=Statler Brothers, The - Do You Know You Are My Sunshine
TTITLE22=Don Williams - It Must Be Love
TTITLE23=Charley Pride - Someone Loves You Honey
EXTD=
EXTT0=
EXTT1=
EXTT2=
EXTT3=
EXTT4=
EXTT5=
EXTT6=
EXTT7=
EXTT8=
EXTT9=
EXTT10=
EXTT11=
EXTT12=
EXTT13=
EXTT14=
EXTT15=
EXTT16=
EXTT17=
EXTT18=
EXTT19=
EXTT20=
EXTT21=
EXTT22=
EXTT23=
PLAYORDER=
